<mxfile host="app.diagrams.net" modified="2024-03-31T16:54:57.020Z" agent="Mozilla/5.0 (Windows NT 10.0; Win64; x64; rv:124.0) Gecko/20100101 Firefox/124.0" etag="-sgvTUXic55vyf4GK30l" version="24.2.1" type="device">
  <diagram id="C5RBs43oDa-KdzZeNtuy" name="Page-1">
    <mxGraphModel dx="1050" dy="626" grid="1" gridSize="10" guides="1" tooltips="1" connect="1" arrows="1" fold="1" page="1" pageScale="1" pageWidth="827" pageHeight="1169" math="0" shadow="0">
      <root>
        <mxCell id="WIyWlLk6GJQsqaUBKTNV-0" />
        <mxCell id="WIyWlLk6GJQsqaUBKTNV-1" parent="WIyWlLk6GJQsqaUBKTNV-0" />
        <mxCell id="XmmyuuIL2CjPY_-8ar1_-26" value="" style="edgeStyle=orthogonalEdgeStyle;rounded=0;orthogonalLoop=1;jettySize=auto;html=1;" edge="1" parent="WIyWlLk6GJQsqaUBKTNV-1" source="WIyWlLk6GJQsqaUBKTNV-3" target="XmmyuuIL2CjPY_-8ar1_-25">
          <mxGeometry relative="1" as="geometry" />
        </mxCell>
        <mxCell id="WIyWlLk6GJQsqaUBKTNV-3" value="discard" style="rounded=1;whiteSpace=wrap;html=1;fontSize=12;glass=0;strokeWidth=1;shadow=0;" parent="WIyWlLk6GJQsqaUBKTNV-1" vertex="1">
          <mxGeometry x="620" y="80" width="120" height="40" as="geometry" />
        </mxCell>
        <mxCell id="XmmyuuIL2CjPY_-8ar1_-3" value="" style="edgeStyle=orthogonalEdgeStyle;rounded=0;orthogonalLoop=1;jettySize=auto;html=1;" edge="1" parent="WIyWlLk6GJQsqaUBKTNV-1" source="XmmyuuIL2CjPY_-8ar1_-0" target="XmmyuuIL2CjPY_-8ar1_-2">
          <mxGeometry relative="1" as="geometry" />
        </mxCell>
        <mxCell id="XmmyuuIL2CjPY_-8ar1_-8" value="" style="edgeStyle=orthogonalEdgeStyle;rounded=0;orthogonalLoop=1;jettySize=auto;html=1;" edge="1" parent="WIyWlLk6GJQsqaUBKTNV-1" source="XmmyuuIL2CjPY_-8ar1_-0" target="XmmyuuIL2CjPY_-8ar1_-7">
          <mxGeometry relative="1" as="geometry" />
        </mxCell>
        <mxCell id="XmmyuuIL2CjPY_-8ar1_-0" value="PVC initialized?" style="rhombus;whiteSpace=wrap;html=1;rounded=1;glass=0;strokeWidth=1;shadow=0;" vertex="1" parent="WIyWlLk6GJQsqaUBKTNV-1">
          <mxGeometry x="180" y="180" width="80" height="80" as="geometry" />
        </mxCell>
        <mxCell id="XmmyuuIL2CjPY_-8ar1_-2" value="PVCNotInitialized error" style="whiteSpace=wrap;html=1;rounded=1;glass=0;strokeWidth=1;shadow=0;" vertex="1" parent="WIyWlLk6GJQsqaUBKTNV-1">
          <mxGeometry x="320" y="190" width="120" height="60" as="geometry" />
        </mxCell>
        <mxCell id="XmmyuuIL2CjPY_-8ar1_-4" value="No" style="text;html=1;align=center;verticalAlign=middle;resizable=0;points=[];autosize=1;strokeColor=none;fillColor=none;" vertex="1" parent="WIyWlLk6GJQsqaUBKTNV-1">
          <mxGeometry x="260" y="178" width="40" height="30" as="geometry" />
        </mxCell>
        <mxCell id="XmmyuuIL2CjPY_-8ar1_-10" value="" style="edgeStyle=orthogonalEdgeStyle;rounded=0;orthogonalLoop=1;jettySize=auto;html=1;" edge="1" parent="WIyWlLk6GJQsqaUBKTNV-1" source="XmmyuuIL2CjPY_-8ar1_-7" target="XmmyuuIL2CjPY_-8ar1_-9">
          <mxGeometry relative="1" as="geometry" />
        </mxCell>
        <mxCell id="XmmyuuIL2CjPY_-8ar1_-14" value="" style="edgeStyle=orthogonalEdgeStyle;rounded=0;orthogonalLoop=1;jettySize=auto;html=1;" edge="1" parent="WIyWlLk6GJQsqaUBKTNV-1" source="XmmyuuIL2CjPY_-8ar1_-7" target="XmmyuuIL2CjPY_-8ar1_-13">
          <mxGeometry relative="1" as="geometry" />
        </mxCell>
        <mxCell id="XmmyuuIL2CjPY_-8ar1_-7" value="Commit message entered?" style="rhombus;whiteSpace=wrap;html=1;rounded=1;glass=0;strokeWidth=1;shadow=0;" vertex="1" parent="WIyWlLk6GJQsqaUBKTNV-1">
          <mxGeometry x="180" y="340" width="80" height="80" as="geometry" />
        </mxCell>
        <mxCell id="XmmyuuIL2CjPY_-8ar1_-9" value="CommiMessageUndefined error" style="whiteSpace=wrap;html=1;rounded=1;glass=0;strokeWidth=1;shadow=0;" vertex="1" parent="WIyWlLk6GJQsqaUBKTNV-1">
          <mxGeometry x="320" y="350" width="190" height="60" as="geometry" />
        </mxCell>
        <mxCell id="XmmyuuIL2CjPY_-8ar1_-11" value="No" style="text;html=1;align=center;verticalAlign=middle;resizable=0;points=[];autosize=1;strokeColor=none;fillColor=none;" vertex="1" parent="WIyWlLk6GJQsqaUBKTNV-1">
          <mxGeometry x="260" y="338" width="40" height="30" as="geometry" />
        </mxCell>
        <mxCell id="XmmyuuIL2CjPY_-8ar1_-12" value="Yes" style="text;html=1;align=center;verticalAlign=middle;resizable=0;points=[];autosize=1;strokeColor=none;fillColor=none;" vertex="1" parent="WIyWlLk6GJQsqaUBKTNV-1">
          <mxGeometry x="240" y="268" width="40" height="30" as="geometry" />
        </mxCell>
        <mxCell id="XmmyuuIL2CjPY_-8ar1_-16" value="" style="edgeStyle=orthogonalEdgeStyle;rounded=0;orthogonalLoop=1;jettySize=auto;html=1;" edge="1" parent="WIyWlLk6GJQsqaUBKTNV-1" source="XmmyuuIL2CjPY_-8ar1_-13" target="XmmyuuIL2CjPY_-8ar1_-15">
          <mxGeometry relative="1" as="geometry" />
        </mxCell>
        <mxCell id="XmmyuuIL2CjPY_-8ar1_-13" value="create commit directory" style="whiteSpace=wrap;html=1;rounded=1;glass=0;strokeWidth=1;shadow=0;" vertex="1" parent="WIyWlLk6GJQsqaUBKTNV-1">
          <mxGeometry x="160" y="510" width="120" height="60" as="geometry" />
        </mxCell>
        <mxCell id="XmmyuuIL2CjPY_-8ar1_-18" value="" style="edgeStyle=orthogonalEdgeStyle;rounded=0;orthogonalLoop=1;jettySize=auto;html=1;" edge="1" parent="WIyWlLk6GJQsqaUBKTNV-1" source="XmmyuuIL2CjPY_-8ar1_-15" target="XmmyuuIL2CjPY_-8ar1_-17">
          <mxGeometry relative="1" as="geometry" />
        </mxCell>
        <mxCell id="XmmyuuIL2CjPY_-8ar1_-15" value="Copy files from staging area to the commit directory" style="whiteSpace=wrap;html=1;rounded=1;glass=0;strokeWidth=1;shadow=0;" vertex="1" parent="WIyWlLk6GJQsqaUBKTNV-1">
          <mxGeometry x="160" y="650" width="120" height="60" as="geometry" />
        </mxCell>
        <mxCell id="XmmyuuIL2CjPY_-8ar1_-20" value="" style="edgeStyle=orthogonalEdgeStyle;rounded=0;orthogonalLoop=1;jettySize=auto;html=1;" edge="1" parent="WIyWlLk6GJQsqaUBKTNV-1" source="XmmyuuIL2CjPY_-8ar1_-17" target="XmmyuuIL2CjPY_-8ar1_-19">
          <mxGeometry relative="1" as="geometry" />
        </mxCell>
        <mxCell id="XmmyuuIL2CjPY_-8ar1_-17" value="Write commit metadata file" style="whiteSpace=wrap;html=1;rounded=1;glass=0;strokeWidth=1;shadow=0;" vertex="1" parent="WIyWlLk6GJQsqaUBKTNV-1">
          <mxGeometry x="160" y="790" width="120" height="60" as="geometry" />
        </mxCell>
        <mxCell id="XmmyuuIL2CjPY_-8ar1_-22" value="" style="edgeStyle=orthogonalEdgeStyle;rounded=0;orthogonalLoop=1;jettySize=auto;html=1;" edge="1" parent="WIyWlLk6GJQsqaUBKTNV-1" source="XmmyuuIL2CjPY_-8ar1_-19" target="XmmyuuIL2CjPY_-8ar1_-21">
          <mxGeometry relative="1" as="geometry" />
        </mxCell>
        <mxCell id="XmmyuuIL2CjPY_-8ar1_-19" value="Truncate staging area" style="whiteSpace=wrap;html=1;rounded=1;glass=0;strokeWidth=1;shadow=0;" vertex="1" parent="WIyWlLk6GJQsqaUBKTNV-1">
          <mxGeometry x="160" y="930" width="120" height="60" as="geometry" />
        </mxCell>
        <mxCell id="XmmyuuIL2CjPY_-8ar1_-21" value="Sync local repository based on index lockfile and commit history" style="whiteSpace=wrap;html=1;rounded=1;glass=0;strokeWidth=1;shadow=0;" vertex="1" parent="WIyWlLk6GJQsqaUBKTNV-1">
          <mxGeometry x="160" y="1070" width="120" height="60" as="geometry" />
        </mxCell>
        <mxCell id="XmmyuuIL2CjPY_-8ar1_-24" value="" style="edgeStyle=orthogonalEdgeStyle;rounded=0;orthogonalLoop=1;jettySize=auto;html=1;entryX=0.5;entryY=0;entryDx=0;entryDy=0;" edge="1" parent="WIyWlLk6GJQsqaUBKTNV-1" source="XmmyuuIL2CjPY_-8ar1_-23" target="XmmyuuIL2CjPY_-8ar1_-0">
          <mxGeometry relative="1" as="geometry" />
        </mxCell>
        <mxCell id="XmmyuuIL2CjPY_-8ar1_-23" value="&lt;div&gt;commit&lt;/div&gt;" style="rounded=1;whiteSpace=wrap;html=1;fontSize=12;glass=0;strokeWidth=1;shadow=0;" vertex="1" parent="WIyWlLk6GJQsqaUBKTNV-1">
          <mxGeometry x="170" y="90" width="120" height="40" as="geometry" />
        </mxCell>
        <mxCell id="XmmyuuIL2CjPY_-8ar1_-30" value="" style="edgeStyle=orthogonalEdgeStyle;rounded=0;orthogonalLoop=1;jettySize=auto;html=1;" edge="1" parent="WIyWlLk6GJQsqaUBKTNV-1" source="XmmyuuIL2CjPY_-8ar1_-25" target="XmmyuuIL2CjPY_-8ar1_-29">
          <mxGeometry relative="1" as="geometry" />
        </mxCell>
        <mxCell id="XmmyuuIL2CjPY_-8ar1_-33" value="" style="edgeStyle=orthogonalEdgeStyle;rounded=0;orthogonalLoop=1;jettySize=auto;html=1;" edge="1" parent="WIyWlLk6GJQsqaUBKTNV-1" source="XmmyuuIL2CjPY_-8ar1_-25" target="XmmyuuIL2CjPY_-8ar1_-32">
          <mxGeometry relative="1" as="geometry" />
        </mxCell>
        <mxCell id="XmmyuuIL2CjPY_-8ar1_-25" value="PVC initialized?" style="rhombus;whiteSpace=wrap;html=1;rounded=1;glass=0;strokeWidth=1;shadow=0;" vertex="1" parent="WIyWlLk6GJQsqaUBKTNV-1">
          <mxGeometry x="640" y="180" width="80" height="80" as="geometry" />
        </mxCell>
        <mxCell id="XmmyuuIL2CjPY_-8ar1_-29" value="PVCNotInitialized error" style="whiteSpace=wrap;html=1;rounded=1;glass=0;strokeWidth=1;shadow=0;" vertex="1" parent="WIyWlLk6GJQsqaUBKTNV-1">
          <mxGeometry x="780" y="190" width="120" height="60" as="geometry" />
        </mxCell>
        <mxCell id="XmmyuuIL2CjPY_-8ar1_-31" value="No" style="text;html=1;align=center;verticalAlign=middle;resizable=0;points=[];autosize=1;strokeColor=none;fillColor=none;" vertex="1" parent="WIyWlLk6GJQsqaUBKTNV-1">
          <mxGeometry x="730" y="178" width="40" height="30" as="geometry" />
        </mxCell>
        <mxCell id="XmmyuuIL2CjPY_-8ar1_-35" value="" style="edgeStyle=orthogonalEdgeStyle;rounded=0;orthogonalLoop=1;jettySize=auto;html=1;" edge="1" parent="WIyWlLk6GJQsqaUBKTNV-1" source="XmmyuuIL2CjPY_-8ar1_-32" target="XmmyuuIL2CjPY_-8ar1_-34">
          <mxGeometry relative="1" as="geometry" />
        </mxCell>
        <mxCell id="XmmyuuIL2CjPY_-8ar1_-32" value="restore files from local repo" style="whiteSpace=wrap;html=1;rounded=1;glass=0;strokeWidth=1;shadow=0;" vertex="1" parent="WIyWlLk6GJQsqaUBKTNV-1">
          <mxGeometry x="620" y="350" width="120" height="60" as="geometry" />
        </mxCell>
        <mxCell id="XmmyuuIL2CjPY_-8ar1_-34" value="delete files from status directory / status lockfile" style="whiteSpace=wrap;html=1;rounded=1;glass=0;strokeWidth=1;shadow=0;" vertex="1" parent="WIyWlLk6GJQsqaUBKTNV-1">
          <mxGeometry x="620" y="490" width="120" height="60" as="geometry" />
        </mxCell>
      </root>
    </mxGraphModel>
  </diagram>
</mxfile>
